<mxfile host="app.diagrams.net" agent="Mozilla/5.0 (Windows NT 10.0; Win64; x64) AppleWebKit/537.36 (KHTML, like Gecko) Chrome/131.0.0.0 Safari/537.36" version="24.9.3">
  <diagram name="Page-1" id="JKb27s8Peb_86zkcw42q">
    <mxGraphModel dx="1434" dy="744" grid="1" gridSize="10" guides="1" tooltips="1" connect="1" arrows="1" fold="1" page="1" pageScale="1" pageWidth="850" pageHeight="1100" math="0" shadow="0">
      <root>
        <mxCell id="0" />
        <mxCell id="1" parent="0" />
        <mxCell id="H9iB_IJ9ovKKXxAN1GLQ-1" value="Adopter" style="shape=umlActor;verticalLabelPosition=bottom;verticalAlign=top;html=1;outlineConnect=0;" parent="1" vertex="1">
          <mxGeometry x="84" y="80" width="30" height="60" as="geometry" />
        </mxCell>
        <mxCell id="H9iB_IJ9ovKKXxAN1GLQ-3" value="" style="endArrow=none;dashed=1;html=1;dashPattern=1 3;strokeWidth=2;rounded=0;" parent="1" source="H9iB_IJ9ovKKXxAN1GLQ-13" edge="1">
          <mxGeometry width="50" height="50" relative="1" as="geometry">
            <mxPoint x="100" y="780" as="sourcePoint" />
            <mxPoint x="100" y="140" as="targetPoint" />
          </mxGeometry>
        </mxCell>
        <mxCell id="H9iB_IJ9ovKKXxAN1GLQ-7" value="App" style="rounded=0;whiteSpace=wrap;html=1;" parent="1" vertex="1">
          <mxGeometry x="200" y="90" width="120" height="60" as="geometry" />
        </mxCell>
        <mxCell id="H9iB_IJ9ovKKXxAN1GLQ-8" value="Server" style="rounded=0;whiteSpace=wrap;html=1;" parent="1" vertex="1">
          <mxGeometry x="380" y="90" width="120" height="60" as="geometry" />
        </mxCell>
        <mxCell id="H9iB_IJ9ovKKXxAN1GLQ-9" value="Database" style="rounded=0;whiteSpace=wrap;html=1;" parent="1" vertex="1">
          <mxGeometry x="560" y="90" width="120" height="60" as="geometry" />
        </mxCell>
        <mxCell id="H9iB_IJ9ovKKXxAN1GLQ-10" value="" style="endArrow=none;dashed=1;html=1;dashPattern=1 3;strokeWidth=2;rounded=0;entryX=0.5;entryY=1;entryDx=0;entryDy=0;" parent="1" target="H9iB_IJ9ovKKXxAN1GLQ-7" edge="1">
          <mxGeometry width="50" height="50" relative="1" as="geometry">
            <mxPoint x="260" y="780" as="sourcePoint" />
            <mxPoint x="260" y="210" as="targetPoint" />
          </mxGeometry>
        </mxCell>
        <mxCell id="H9iB_IJ9ovKKXxAN1GLQ-11" value="" style="endArrow=none;dashed=1;html=1;dashPattern=1 3;strokeWidth=2;rounded=0;entryX=0.5;entryY=1;entryDx=0;entryDy=0;" parent="1" edge="1">
          <mxGeometry width="50" height="50" relative="1" as="geometry">
            <mxPoint x="440" y="779" as="sourcePoint" />
            <mxPoint x="439.5" y="149" as="targetPoint" />
          </mxGeometry>
        </mxCell>
        <mxCell id="H9iB_IJ9ovKKXxAN1GLQ-12" value="" style="endArrow=none;dashed=1;html=1;dashPattern=1 3;strokeWidth=2;rounded=0;entryX=0.5;entryY=1;entryDx=0;entryDy=0;" parent="1" edge="1">
          <mxGeometry width="50" height="50" relative="1" as="geometry">
            <mxPoint x="620" y="780" as="sourcePoint" />
            <mxPoint x="619.5" y="150" as="targetPoint" />
          </mxGeometry>
        </mxCell>
        <mxCell id="H9iB_IJ9ovKKXxAN1GLQ-14" value="" style="endArrow=none;dashed=1;html=1;dashPattern=1 3;strokeWidth=2;rounded=0;" parent="1" target="H9iB_IJ9ovKKXxAN1GLQ-13" edge="1">
          <mxGeometry width="50" height="50" relative="1" as="geometry">
            <mxPoint x="100" y="780" as="sourcePoint" />
            <mxPoint x="100" y="140" as="targetPoint" />
          </mxGeometry>
        </mxCell>
        <mxCell id="H9iB_IJ9ovKKXxAN1GLQ-13" value="" style="rounded=0;whiteSpace=wrap;html=1;direction=south;" parent="1" vertex="1">
          <mxGeometry x="87.25" y="210" width="26.75" height="570" as="geometry" />
        </mxCell>
        <mxCell id="H9iB_IJ9ovKKXxAN1GLQ-15" value="" style="endArrow=classic;html=1;rounded=0;" parent="1" edge="1">
          <mxGeometry width="50" height="50" relative="1" as="geometry">
            <mxPoint x="114" y="240" as="sourcePoint" />
            <mxPoint x="240" y="240" as="targetPoint" />
          </mxGeometry>
        </mxCell>
        <mxCell id="H9iB_IJ9ovKKXxAN1GLQ-17" value="Pet Characteristics" style="text;html=1;align=center;verticalAlign=middle;whiteSpace=wrap;rounded=0;" parent="1" vertex="1">
          <mxGeometry x="150" y="210" width="60" height="30" as="geometry" />
        </mxCell>
        <mxCell id="H9iB_IJ9ovKKXxAN1GLQ-18" value="" style="rounded=0;whiteSpace=wrap;html=1;direction=south;" parent="1" vertex="1">
          <mxGeometry x="245" y="230" width="30" height="150" as="geometry" />
        </mxCell>
        <mxCell id="H9iB_IJ9ovKKXxAN1GLQ-22" value="" style="rounded=0;whiteSpace=wrap;html=1;direction=south;" parent="1" vertex="1">
          <mxGeometry x="425" y="232" width="30" height="138" as="geometry" />
        </mxCell>
        <mxCell id="H9iB_IJ9ovKKXxAN1GLQ-26" value="" style="endArrow=classic;html=1;rounded=0;" parent="1" edge="1">
          <mxGeometry width="50" height="50" relative="1" as="geometry">
            <mxPoint x="275" y="260" as="sourcePoint" />
            <mxPoint x="420" y="260" as="targetPoint" />
          </mxGeometry>
        </mxCell>
        <mxCell id="H9iB_IJ9ovKKXxAN1GLQ-27" value="" style="endArrow=classic;html=1;rounded=0;" parent="1" edge="1">
          <mxGeometry width="50" height="50" relative="1" as="geometry">
            <mxPoint x="455" y="270" as="sourcePoint" />
            <mxPoint x="600" y="270" as="targetPoint" />
          </mxGeometry>
        </mxCell>
        <mxCell id="H9iB_IJ9ovKKXxAN1GLQ-28" value="Pet Characteristics" style="text;html=1;align=center;verticalAlign=middle;whiteSpace=wrap;rounded=0;" parent="1" vertex="1">
          <mxGeometry x="320" y="230" width="60" height="30" as="geometry" />
        </mxCell>
        <mxCell id="H9iB_IJ9ovKKXxAN1GLQ-29" value="" style="rounded=0;whiteSpace=wrap;html=1;direction=south;" parent="1" vertex="1">
          <mxGeometry x="605" y="238" width="30" height="102" as="geometry" />
        </mxCell>
        <mxCell id="H9iB_IJ9ovKKXxAN1GLQ-31" value="Pet Characteristics&amp;nbsp;" style="text;html=1;align=center;verticalAlign=middle;whiteSpace=wrap;rounded=0;" parent="1" vertex="1">
          <mxGeometry x="500" y="240" width="60" height="30" as="geometry" />
        </mxCell>
        <mxCell id="gZDHdwICfYgJ0nPvCNFj-1" value="alt" style="shape=umlFrame;whiteSpace=wrap;html=1;pointerEvents=0;" vertex="1" parent="1">
          <mxGeometry x="10" y="280" width="770" height="300" as="geometry" />
        </mxCell>
        <mxCell id="gZDHdwICfYgJ0nPvCNFj-2" value="" style="rounded=0;whiteSpace=wrap;html=1;direction=south;" vertex="1" parent="1">
          <mxGeometry x="605" y="397" width="30" height="102" as="geometry" />
        </mxCell>
        <mxCell id="gZDHdwICfYgJ0nPvCNFj-3" value="" style="rounded=0;whiteSpace=wrap;html=1;direction=south;" vertex="1" parent="1">
          <mxGeometry x="425" y="404" width="30" height="138" as="geometry" />
        </mxCell>
        <mxCell id="gZDHdwICfYgJ0nPvCNFj-8" value="" style="rounded=0;whiteSpace=wrap;html=1;direction=south;" vertex="1" parent="1">
          <mxGeometry x="245" y="412" width="30" height="150" as="geometry" />
        </mxCell>
        <mxCell id="gZDHdwICfYgJ0nPvCNFj-12" value="" style="endArrow=none;dashed=1;html=1;rounded=0;entryX=0.999;entryY=0.373;entryDx=0;entryDy=0;entryPerimeter=0;" edge="1" parent="1" target="gZDHdwICfYgJ0nPvCNFj-1">
          <mxGeometry width="50" height="50" relative="1" as="geometry">
            <mxPoint x="10" y="390" as="sourcePoint" />
            <mxPoint x="530" y="390" as="targetPoint" />
          </mxGeometry>
        </mxCell>
        <mxCell id="gZDHdwICfYgJ0nPvCNFj-13" value="If pets with characteristic exist" style="text;html=1;align=center;verticalAlign=middle;whiteSpace=wrap;rounded=0;" vertex="1" parent="1">
          <mxGeometry x="10" y="320" width="70" height="50" as="geometry" />
        </mxCell>
        <mxCell id="gZDHdwICfYgJ0nPvCNFj-15" value="If pets with characteristic don&#39;t exist" style="text;html=1;align=center;verticalAlign=middle;whiteSpace=wrap;rounded=0;" vertex="1" parent="1">
          <mxGeometry x="10" y="420" width="70" height="70" as="geometry" />
        </mxCell>
        <mxCell id="gZDHdwICfYgJ0nPvCNFj-16" value="" style="endArrow=classic;html=1;rounded=0;exitX=0.75;exitY=1;exitDx=0;exitDy=0;strokeColor=default;dashed=1;" edge="1" parent="1">
          <mxGeometry width="50" height="50" relative="1" as="geometry">
            <mxPoint x="600" y="320" as="sourcePoint" />
            <mxPoint x="460" y="320" as="targetPoint" />
          </mxGeometry>
        </mxCell>
        <mxCell id="gZDHdwICfYgJ0nPvCNFj-17" value="List with pets" style="text;html=1;align=center;verticalAlign=middle;whiteSpace=wrap;rounded=0;" vertex="1" parent="1">
          <mxGeometry x="500" y="290" width="60" height="30" as="geometry" />
        </mxCell>
        <mxCell id="gZDHdwICfYgJ0nPvCNFj-18" value="" style="endArrow=classic;html=1;rounded=0;exitX=0.75;exitY=1;exitDx=0;exitDy=0;dashed=1;" edge="1" parent="1">
          <mxGeometry width="50" height="50" relative="1" as="geometry">
            <mxPoint x="420" y="339" as="sourcePoint" />
            <mxPoint x="280" y="339" as="targetPoint" />
          </mxGeometry>
        </mxCell>
        <mxCell id="gZDHdwICfYgJ0nPvCNFj-19" value="List with pets" style="text;html=1;align=center;verticalAlign=middle;whiteSpace=wrap;rounded=0;" vertex="1" parent="1">
          <mxGeometry x="320" y="309" width="60" height="30" as="geometry" />
        </mxCell>
        <mxCell id="gZDHdwICfYgJ0nPvCNFj-20" value="" style="endArrow=classic;html=1;rounded=0;dashed=1;" edge="1" parent="1">
          <mxGeometry width="50" height="50" relative="1" as="geometry">
            <mxPoint x="240" y="339" as="sourcePoint" />
            <mxPoint x="114" y="339" as="targetPoint" />
          </mxGeometry>
        </mxCell>
        <mxCell id="gZDHdwICfYgJ0nPvCNFj-21" value="Shows the list of pets" style="text;html=1;align=center;verticalAlign=middle;whiteSpace=wrap;rounded=0;" vertex="1" parent="1">
          <mxGeometry x="154" y="309" width="60" height="30" as="geometry" />
        </mxCell>
        <mxCell id="gZDHdwICfYgJ0nPvCNFj-26" value="" style="endArrow=classic;html=1;rounded=0;exitX=0.75;exitY=1;exitDx=0;exitDy=0;strokeColor=default;dashed=1;" edge="1" parent="1">
          <mxGeometry width="50" height="50" relative="1" as="geometry">
            <mxPoint x="600" y="442" as="sourcePoint" />
            <mxPoint x="460" y="442" as="targetPoint" />
          </mxGeometry>
        </mxCell>
        <mxCell id="gZDHdwICfYgJ0nPvCNFj-27" value="Returns empty list" style="text;html=1;align=center;verticalAlign=middle;whiteSpace=wrap;rounded=0;" vertex="1" parent="1">
          <mxGeometry x="500" y="412" width="60" height="30" as="geometry" />
        </mxCell>
        <mxCell id="gZDHdwICfYgJ0nPvCNFj-28" value="" style="endArrow=classic;html=1;rounded=0;exitX=0.75;exitY=1;exitDx=0;exitDy=0;strokeColor=default;dashed=1;" edge="1" parent="1">
          <mxGeometry width="50" height="50" relative="1" as="geometry">
            <mxPoint x="420" y="462.5" as="sourcePoint" />
            <mxPoint x="280" y="462.5" as="targetPoint" />
          </mxGeometry>
        </mxCell>
        <mxCell id="gZDHdwICfYgJ0nPvCNFj-29" value="Returns empty list" style="text;html=1;align=center;verticalAlign=middle;whiteSpace=wrap;rounded=0;" vertex="1" parent="1">
          <mxGeometry x="320" y="432.5" width="60" height="30" as="geometry" />
        </mxCell>
        <mxCell id="gZDHdwICfYgJ0nPvCNFj-30" value="" style="endArrow=classic;html=1;rounded=0;strokeColor=default;dashed=1;" edge="1" parent="1">
          <mxGeometry width="50" height="50" relative="1" as="geometry">
            <mxPoint x="244" y="488" as="sourcePoint" />
            <mxPoint x="124" y="487.5" as="targetPoint" />
          </mxGeometry>
        </mxCell>
        <mxCell id="gZDHdwICfYgJ0nPvCNFj-31" value="No pets found" style="text;html=1;align=center;verticalAlign=middle;whiteSpace=wrap;rounded=0;" vertex="1" parent="1">
          <mxGeometry x="150" y="457.5" width="60" height="30" as="geometry" />
        </mxCell>
      </root>
    </mxGraphModel>
  </diagram>
</mxfile>
